<svg width="53" height="50" viewBox="0 0 53 50" fill="none" xmlns="http://www.w3.org/2000/svg">
<g clip-path="url(#clip0_3:296)">
<path d="M52.4874 27.4037C52.0202 22.7046 49.9209 18.2746 46.5759 14.9295C43.7173 12.071 40.2185 10.2341 36.5369 9.41735V6.83519C38.0406 6.4611 39.1583 5.1 39.1583 3.48219C39.1583 1.57688 37.6083 0.0268555 35.703 0.0268555H28.3858C26.4805 0.0268555 24.9305 1.57688 24.9305 3.48219C24.9305 5.0999 26.0482 6.461 27.5517 6.83519V9.42456C23.8815 10.2448 20.3942 12.0792 17.5438 14.9296C16.92 15.5534 16.3448 16.2078 15.8182 16.8879C15.7927 16.886 15.7672 16.884 15.7412 16.884H8.4991C7.93791 16.884 7.48283 17.339 7.48283 17.9003C7.48283 18.4616 7.93791 18.9166 8.4991 18.9166H14.4354C13.6902 20.1641 13.0894 21.4741 12.6321 22.8227H1.57145C1.01026 22.8227 0.555176 23.2777 0.555176 23.839C0.555176 24.4003 1.01026 24.8553 1.57145 24.8553H12.0578C11.7649 26.141 11.5968 27.4494 11.5534 28.7615H7.05934C6.49816 28.7615 6.04307 29.2165 6.04307 29.7778C6.04307 30.3391 6.49816 30.7941 7.05934 30.7941H11.5858C11.6716 32.1096 11.8831 33.4181 12.2204 34.7004H5.63656C5.07537 34.7004 4.62028 35.1553 4.62028 35.7166C4.62028 36.2779 5.07537 36.7329 5.63656 36.7329H12.869C13.866 39.3703 15.424 41.8421 17.5438 43.9619C20.892 47.3101 25.3266 49.4099 30.0305 49.8747C30.7019 49.9409 31.3737 49.9738 32.0447 49.9738C36.0104 49.9738 39.9257 48.8261 43.2479 46.6626C43.7183 46.3563 43.8513 45.7268 43.545 45.2564C43.2387 44.7861 42.6091 44.6531 42.1388 44.9594C34.8666 49.6949 25.1273 48.671 18.981 42.5247C11.7693 35.313 11.7693 23.5787 18.981 16.3669C26.1926 9.15535 37.9268 9.15535 45.1386 16.3669C51.2768 22.5053 52.3063 32.2362 47.5864 39.5048C47.2807 39.9755 47.4145 40.605 47.8852 40.9106C48.3561 41.2163 48.9854 41.0825 49.291 40.6117C51.8128 36.728 52.948 32.0374 52.4874 27.4037ZM26.963 3.4823C26.963 2.69773 27.6012 2.05951 28.3858 2.05951H35.703C36.4875 2.05951 37.1258 2.69773 37.1258 3.4823C37.1258 4.26686 36.4875 4.90508 35.703 4.90508H35.5207H28.568H28.3858C27.6012 4.90508 26.963 4.26676 26.963 3.4823ZM29.5843 9.07517V6.93763H34.5044V9.07151C32.8706 8.8772 31.2178 8.87842 29.5843 9.07517Z" fill="#3B82F6"/>
<path d="M45.8576 42.2261C45.5893 42.2261 45.3281 42.3348 45.1392 42.5238C44.9491 42.7129 44.8413 42.9751 44.8413 43.2423C44.8413 43.5096 44.9491 43.7718 45.1392 43.9608C45.3281 44.1509 45.5894 44.2586 45.8576 44.2586C46.1248 44.2586 46.386 44.1509 46.5761 43.9608C46.7651 43.7718 46.8738 43.5096 46.8738 43.2423C46.8738 42.9751 46.7652 42.7129 46.5761 42.5238C46.386 42.3348 46.1247 42.2261 45.8576 42.2261Z" fill="#3B82F6"/>
<path d="M32.0598 13.6802C23.3668 13.6802 16.2944 20.7524 16.2944 29.4456C16.2944 38.1387 23.3668 45.211 32.0598 45.211C40.7528 45.211 47.8252 38.1387 47.8252 29.4456C47.8252 20.7524 40.7528 13.6802 32.0598 13.6802ZM32.0598 43.1784C24.4874 43.1784 18.327 37.0178 18.327 29.4456C18.327 21.8733 24.4874 15.7127 32.0598 15.7127C39.6322 15.7127 45.7927 21.8733 45.7927 29.4456C45.7927 37.0178 39.6322 43.1784 32.0598 43.1784Z" fill="#3B82F6"/>
<path d="M38.4885 21.5799L33.4549 26.6134C33.0339 26.4052 32.5604 26.2877 32.0599 26.2877C31.5593 26.2877 31.0859 26.4052 30.665 26.6134L28.4122 24.3606C28.0152 23.9637 27.3719 23.9637 26.9749 24.3606C26.578 24.7575 26.578 25.401 26.9749 25.7978L29.2277 28.0506C29.0194 28.4715 28.9019 28.945 28.9019 29.4455C28.9019 31.1868 30.3185 32.6035 32.0599 32.6035C33.8013 32.6035 35.2179 31.1868 35.2179 29.4455C35.2179 28.945 35.1003 28.4715 34.8922 28.0506L39.778 23.1647L39.9257 23.0171C40.3225 22.6202 40.3225 21.9767 39.9257 21.5799C39.5288 21.183 38.8855 21.183 38.4885 21.5799ZM32.0599 30.571C31.4394 30.571 30.9345 30.0662 30.9345 29.4456C30.9345 28.8251 31.4394 28.3202 32.0599 28.3202C32.6805 28.3202 33.1853 28.8251 33.1853 29.4456C33.1853 30.0662 32.6805 30.571 32.0599 30.571Z" fill="#3B82F6"/>
<path d="M42.9256 28.4419H41.984C41.4229 28.4419 40.9678 28.8969 40.9678 29.4582C40.9678 30.0194 41.4229 30.4744 41.984 30.4744H42.9256C43.4868 30.4744 43.9419 30.0194 43.9419 29.4582C43.9419 28.8969 43.4868 28.4419 42.9256 28.4419Z" fill="#3B82F6"/>
<path d="M22.1355 28.417H21.194C20.6328 28.417 20.1777 28.872 20.1777 29.4333C20.1777 29.9945 20.6328 30.4495 21.194 30.4495H22.1355C22.6966 30.4495 23.1517 29.9945 23.1517 29.4333C23.1517 28.872 22.6966 28.417 22.1355 28.417Z" fill="#3B82F6"/>
<path d="M32.0719 20.5375C32.6331 20.5375 33.0882 20.0825 33.0882 19.5212V18.5797C33.0882 18.0185 32.6331 17.5635 32.0719 17.5635C31.5107 17.5635 31.0557 18.0185 31.0557 18.5797V19.5212C31.0557 20.0825 31.5107 20.5375 32.0719 20.5375Z" fill="#3B82F6"/>
<path d="M32.0475 38.354C31.4863 38.354 31.0312 38.809 31.0312 39.3703V40.3117C31.0312 40.873 31.4863 41.328 32.0475 41.328C32.6087 41.328 33.0638 40.873 33.0638 40.3117V39.3703C33.0638 38.809 32.6087 38.354 32.0475 38.354Z" fill="#3B82F6"/>
<path d="M1.57144 34.7002C1.30416 34.7002 1.04196 34.8089 0.85294 34.998C0.663916 35.187 0.555176 35.4492 0.555176 35.7165C0.555176 35.9847 0.663814 36.2459 0.85294 36.435C1.04207 36.624 1.30416 36.7327 1.57144 36.7327C1.83871 36.7327 2.10091 36.624 2.28983 36.435C2.47885 36.2459 2.5877 35.9837 2.5877 35.7165C2.5877 35.4492 2.47896 35.187 2.28983 34.998C2.10091 34.8089 1.83871 34.7002 1.57144 34.7002Z" fill="#3B82F6"/>
</g>
<defs>
<clipPath id="clip0_3:296">
<rect width="52.0326" height="50" fill="white" transform="translate(0.555176)"/>
</clipPath>
</defs>
</svg>
