<svg width="43" height="50" viewBox="0 0 43 50" fill="none" xmlns="http://www.w3.org/2000/svg">
<g clip-path="url(#clip0_3:308)">
<path d="M29.4079 9.52934C26.9585 7.73582 24.0543 6.79102 21.0193 6.79102C17.9832 6.79102 15.079 7.73582 12.6303 9.52934C10.1813 11.3232 8.39417 13.7995 7.46993 16.6903C5.60055 22.5682 7.74575 28.9428 12.8235 32.5369C13.4716 32.9988 13.858 33.7433 13.858 34.5374V35.7169C13.858 36.9241 14.8375 37.9036 16.045 37.9036L26.9933 37.9103C27.4073 37.9589 27.725 38.3106 27.725 38.7247C27.725 39.1384 27.4073 39.4904 26.9933 39.5383L17.3968 39.5461C17.3901 39.5461 17.3833 39.5461 17.3695 39.5461C17.3628 39.5461 17.356 39.5461 17.3419 39.5461C15.6451 39.6219 14.3065 41.0081 14.3065 42.7123C14.3065 44.4158 15.638 45.803 17.3419 45.8788H17.3833L25.2476 45.9547C25.662 46.0026 25.9793 46.3543 25.9793 46.7687C25.9793 47.1824 25.662 47.5344 25.2476 47.582L18.2941 47.5897C17.6453 47.5897 17.1213 48.1141 17.1213 48.7621C17.1213 49.4106 17.6453 49.9349 18.2941 49.9349L25.31 49.9282C25.338 49.9282 25.3721 49.9282 25.3997 49.9214H25.4338C27.0695 49.7832 28.3312 48.4034 28.3312 46.7754C28.3312 45.1475 27.0762 43.7744 25.4621 43.6227C25.4547 43.6227 25.4479 43.6227 25.4479 43.6227C25.4412 43.6227 25.427 43.6227 25.4203 43.6227C25.4065 43.6227 25.3926 43.6227 25.3788 43.6227C25.3653 43.6227 25.3515 43.6227 25.338 43.6227L17.4454 43.5468C17.0107 43.5259 16.6661 43.1675 16.6661 42.7261C16.6661 42.2908 17.004 41.9324 17.4386 41.9047L27.055 41.898C27.083 41.898 27.1174 41.898 27.1453 41.8912H27.1794C28.8006 41.7462 30.0563 40.3664 30.0563 38.7385C30.0563 37.1105 28.7939 35.7304 27.1794 35.5857C27.1727 35.5857 27.1659 35.5857 27.1659 35.5857C27.1588 35.5857 27.1521 35.5857 27.1453 35.5857C27.1308 35.5857 27.1174 35.5857 27.0968 35.5857C27.083 35.5857 27.0695 35.5857 27.0482 35.5857L16.1968 35.579V34.5577C16.1968 33.0056 15.4377 31.5364 14.1686 30.6392C9.92603 27.6314 8.13217 22.3197 9.69101 17.4145C11.2643 12.4686 15.8107 9.14292 21.0051 9.14292C26.2002 9.14292 30.7462 12.4686 32.3189 17.4145C33.8922 22.3608 32.1054 27.7005 27.8764 30.7015C27.3453 31.0738 27.2212 31.8052 27.6006 32.3362C27.8282 32.661 28.1937 32.8333 28.5592 32.8333C28.7939 32.8333 29.0286 32.7641 29.2353 32.6191C31.7119 30.8604 33.5331 28.411 34.4991 25.5348C35.4648 22.6508 35.4854 19.6016 34.5608 16.7112C33.6437 13.7995 31.8569 11.3232 29.4079 9.52934V9.52934Z" fill="#3B82F6"/>
<path d="M4.69686 20.0776H0.971573C0.440498 20.0776 0.00585938 20.5123 0.00585938 21.0434C0.00585938 21.5744 0.440498 22.0091 0.971573 22.0091H4.69686C5.22793 22.0091 5.66257 21.5744 5.66257 21.0434C5.66257 20.5055 5.23467 20.0776 4.69686 20.0776Z" fill="#3B82F6"/>
<path d="M20.9846 5.72067C21.5153 5.72067 21.9503 5.28604 21.9503 4.75496V1.03002C21.9503 0.498604 21.5153 0.0639648 20.9846 0.0639648C20.4532 0.0639648 20.0186 0.498604 20.0186 1.03002V4.75496C20.0186 5.29312 20.4461 5.72067 20.9846 5.72067Z" fill="#3B82F6"/>
<path d="M9.47086 10.495C9.71195 10.495 9.96046 10.4057 10.1469 10.2192C10.5259 9.84694 10.5333 9.23225 10.1608 8.85358L7.54584 6.16988C7.17325 5.79021 6.55956 5.78346 6.17988 6.15639C5.80054 6.52832 5.7938 7.14234 6.1664 7.52202L8.78097 10.2057C8.97384 10.3986 9.22235 10.495 9.47086 10.495Z" fill="#3B82F6"/>
<path d="M34.4853 6.17636L31.8707 8.86006C31.4978 9.23973 31.5046 9.85342 31.8842 10.226C32.0704 10.4121 32.3189 10.5015 32.5606 10.5015C32.8091 10.5015 33.0644 10.4054 33.2505 10.2122L35.8651 7.52883C36.2374 7.14915 36.2306 6.53546 35.8513 6.16287C35.4649 5.78319 34.8579 5.79668 34.4853 6.17636Z" fill="#3B82F6"/>
<path d="M41.0599 20.0776H37.2655C36.7344 20.0776 36.2998 20.5123 36.2998 21.0434C36.2998 21.5744 36.7344 22.0091 37.2655 22.0091H41.0599C41.591 22.0091 42.0257 21.5744 42.0257 21.0434C42.0257 20.5055 41.591 20.0776 41.0599 20.0776V20.0776Z" fill="#3B82F6"/>
</g>
<defs>
<clipPath id="clip0_3:308">
<rect width="42.0553" height="50" fill="white"/>
</clipPath>
</defs>
</svg>
