<svg width="43" height="50" viewBox="0 0 43 50" fill="none" xmlns="http://www.w3.org/2000/svg">
<g clip-path="url(#clip0_3:318)">
<path d="M42.2083 42.6377L36.7928 33.2579L38.296 32.3931C39.3357 31.8319 39.9808 30.7519 39.9808 29.5687L39.9748 25.7257L41.8873 22.4253C42.4816 21.4255 42.4892 20.1805 41.9064 19.1743L39.9748 15.8408L39.9808 11.9955C39.9797 10.8516 39.363 9.78692 38.3718 9.21738L35.0385 7.29977L33.1646 4.0423C32.6034 3.00264 31.5234 2.35751 30.3403 2.35751L26.4973 2.36357L23.1974 0.451236C22.1974 -0.143304 20.9522 -0.150921 19.946 0.4319L16.6124 2.36357L12.7671 2.35751C11.6232 2.35869 10.5585 2.9753 9.98898 3.96652L8.07148 7.29987L4.8141 9.17353C3.77434 9.73477 3.12912 10.8149 3.12912 11.998L3.13517 15.8409L1.22304 19.1407C0.628399 20.1407 0.620782 21.3859 1.2036 22.3923L3.13527 25.7258L3.12912 29.5711C3.13029 30.7151 3.7469 31.7796 4.73813 32.3493L6.31725 33.2577L0.901841 42.6377C0.712971 42.9648 0.729671 43.3716 0.94481 43.682C1.15995 43.9926 1.53466 44.1517 1.90752 44.0893L8.64707 42.9705L11.048 49.3665C11.1807 49.7202 11.5055 49.9655 11.882 49.9966C11.9089 49.9987 11.9358 49.9999 11.9624 49.9999C12.3091 49.9999 12.6326 49.8153 12.808 49.5116L18.2214 40.1353L19.9131 41.1156C20.4187 41.4162 20.9869 41.5667 21.5553 41.5666C22.1108 41.5666 22.6666 41.4227 23.164 41.1347L24.8887 40.1353L30.3022 49.5116C30.4776 49.8153 30.8009 49.9999 31.1477 49.9999C31.1743 49.9999 31.2012 49.9988 31.2282 49.9966C31.6046 49.9655 31.9294 49.7201 32.0622 49.3665L34.4631 42.9705L41.2026 44.0893C41.5754 44.1515 41.9502 43.9925 42.1653 43.682C42.3805 43.3716 42.3972 42.9648 42.2083 42.6377V42.6377ZM12.15 46.7449L10.1934 41.5325C10.0294 41.0957 9.57921 40.8356 9.11915 40.9123L3.62678 41.824L8.01024 34.2316L8.07148 34.2669L9.94523 37.5243C10.5065 38.564 11.5865 39.2091 12.7696 39.2091L16.5041 39.2033L12.15 46.7449ZM22.1849 39.4448C21.7901 39.6735 21.3009 39.6699 20.9082 39.4352C20.9044 39.433 20.9007 39.4307 20.8969 39.4286L17.364 37.3814C17.2153 37.2951 17.0463 37.2497 16.8743 37.2497C16.8738 37.2497 16.8734 37.2497 16.8728 37.2497L12.768 37.2562C12.3038 37.2562 11.8794 37.0012 11.6607 36.5907C11.6557 36.5815 11.6506 36.5722 11.6454 36.563L9.63312 33.0649C9.54718 32.9154 9.42306 32.7914 9.27354 32.7053L5.71148 30.6564C5.32368 30.4335 5.08257 30.017 5.08208 29.572L5.08862 25.4659C5.08891 25.2934 5.0435 25.124 4.95698 24.9746L2.89337 21.4135C2.66466 21.0186 2.66837 20.5295 2.90294 20.1368C2.90519 20.1331 2.90744 20.1293 2.90958 20.1254L4.95688 16.5925C5.04331 16.4433 5.08872 16.2738 5.08852 16.1014L5.08208 11.9966C5.08208 11.5324 5.33706 11.1079 5.74761 10.8893C5.75689 10.8843 5.76607 10.8792 5.77525 10.8739L9.27345 8.86171C9.42296 8.77577 9.54699 8.65165 9.63302 8.50213L11.682 4.94007C11.9048 4.55237 12.3213 4.31116 12.7664 4.31076L16.8725 4.31731H16.874C17.0459 4.31731 17.2149 4.2719 17.3637 4.18567L20.9249 2.12206C21.3197 1.89335 21.809 1.89706 22.2015 2.13163C22.2053 2.13388 22.209 2.13612 22.2128 2.13827L25.7458 4.18547C25.8945 4.2717 26.0634 4.31711 26.2354 4.31711H26.237L30.3417 4.31067C30.806 4.31067 31.2304 4.56565 31.4491 4.97611C31.454 4.98538 31.4591 4.99466 31.4644 5.00384L33.4766 8.50194C33.5626 8.65145 33.6867 8.77548 33.8362 8.86152L37.3983 10.9106C37.786 11.1334 38.0272 11.5499 38.0276 11.995L38.021 16.1012C38.0208 16.2736 38.0661 16.4431 38.1527 16.5923L40.2163 20.1534C40.445 20.5482 40.4413 21.0375 40.2067 21.43C40.2045 21.4338 40.2022 21.4375 40.2001 21.4413L38.1528 24.9742C38.0663 25.1235 38.0208 25.2929 38.0211 25.4654L38.0276 29.5701C38.0276 30.0344 37.7726 30.4587 37.3621 30.6775C37.3529 30.6824 37.3436 30.6875 37.3344 30.6928L33.8363 32.705C33.6868 32.791 33.5628 32.9151 33.4767 33.0646L31.4277 36.6267C31.2048 37.0145 30.7883 37.2556 30.3433 37.256L26.2371 37.2494C26.2366 37.2494 26.2361 37.2494 26.2355 37.2494C26.0635 37.2494 25.8947 37.2948 25.7459 37.3811L22.1849 39.4448ZM33.9909 40.9124C33.5309 40.8355 33.0806 41.0958 32.9167 41.5326L30.96 46.745L26.6058 39.2034L30.3427 39.2093C31.4867 39.2082 32.5512 38.5916 33.121 37.6004L35.0386 34.267L35.0997 34.2318L39.4832 41.8242L33.9909 40.9124Z" fill="#3B82F6"/>
<path d="M36.5944 20.7835C36.5944 12.4907 29.8477 5.74414 21.555 5.74414C19.1486 5.74414 16.8491 6.29581 14.7199 7.38391C14.2398 7.62932 14.0493 8.21761 14.2947 8.69789C14.5402 9.17808 15.1285 9.36861 15.6087 9.1231C17.46 8.17699 19.4606 7.69729 21.555 7.69729C28.7708 7.69729 34.6412 13.5677 34.6412 20.7835C34.6412 27.9993 28.7707 33.8697 21.555 33.8697C14.3393 33.8697 8.46878 27.9992 8.46878 20.7835C8.46878 18.6893 8.94838 16.6889 9.89429 14.8379C10.1397 14.3576 9.94927 13.7694 9.46909 13.5239C8.989 13.2784 8.40052 13.469 8.1551 13.9491C7.06729 16.0779 6.51562 18.3773 6.51562 20.7835C6.51562 29.0762 13.2622 35.8229 21.555 35.8229C29.8478 35.8229 36.5944 29.0762 36.5944 20.7835Z" fill="#3B82F6"/>
<path d="M11.7891 22.4613C11.7891 22.7455 11.9128 23.0155 12.128 23.201C13.3161 24.2251 14.752 24.89 16.2668 25.1326C16.0874 25.5415 15.9505 25.9828 15.8595 26.4493C15.7663 26.9275 16.0398 27.4013 16.5006 27.5597C17.1598 27.7864 17.8172 27.899 18.4515 27.899C19.2054 27.899 19.9262 27.7393 20.5784 27.4235V29.5725C20.5784 30.1119 21.0156 30.5491 21.5549 30.5491C22.0943 30.5491 22.5315 30.1119 22.5315 29.5725V27.4227C23.7323 28.0043 25.1661 28.0559 26.6091 27.5597C27.0698 27.4013 27.3433 26.9276 27.2501 26.4494C27.1592 25.9828 27.0223 25.5415 26.843 25.1326C28.3579 24.89 29.7936 24.2251 30.9817 23.201C31.197 23.0155 31.3207 22.7454 31.3207 22.4613C31.3207 22.1771 31.197 21.9071 30.9817 21.7215C30.0508 20.9191 28.984 20.3404 27.8393 20.0099C28.4501 18.9408 28.8153 17.7413 28.9093 16.4727C28.9303 16.1893 28.8269 15.9109 28.626 15.7099C28.4251 15.509 28.1471 15.4054 27.8632 15.4266C26.5618 15.5231 25.3113 15.9183 24.2114 16.5679C23.9668 14.7014 23.3443 12.9631 22.3752 11.464C22.1953 11.1856 21.8865 11.0176 21.555 11.0176C21.2236 11.0176 20.9148 11.1856 20.7349 11.464C19.7657 12.9631 19.1433 14.7015 18.8985 16.5679C17.7986 15.9183 16.5483 15.5231 15.2467 15.4266C14.9635 15.4053 14.6849 15.509 14.4839 15.71C14.283 15.9109 14.1795 16.1894 14.2006 16.4727C14.2947 17.7414 14.6598 18.9408 15.2707 20.0099C14.1259 20.3404 13.0591 20.9192 12.1281 21.7216C11.9129 21.9071 11.7891 22.1772 11.7891 22.4613V22.4613ZM17.0278 21.6626C17.3943 21.6317 17.7125 21.3975 17.8508 21.0566C17.9892 20.7158 17.9241 20.3261 17.6827 20.0486C17.0613 19.3341 16.616 18.4996 16.3657 17.591C17.386 17.8712 18.308 18.3966 19.0771 19.143C19.3591 19.4166 19.7777 19.4946 20.1393 19.3409C20.5009 19.1871 20.7352 18.8317 20.7337 18.4387C20.7282 16.9177 21.0143 15.4285 21.5547 14.1051C22.0952 15.4284 22.3812 16.9176 22.3757 18.4386C22.3743 18.8316 22.6086 19.1871 22.9703 19.3408C23.3318 19.4946 23.7506 19.4166 24.0325 19.1429C24.8016 18.3964 25.7234 17.871 26.744 17.5909C26.4938 18.4994 26.0484 19.3339 25.427 20.0484C25.1855 20.3259 25.1206 20.7156 25.2589 21.0564C25.3972 21.3972 25.7152 21.6315 26.0819 21.6624C26.9917 21.739 27.8641 22.0109 28.6561 22.4599C27.7071 22.9955 26.6378 23.2824 25.5498 23.2824C25.4173 23.2824 25.2832 23.2782 25.1514 23.2699C24.7458 23.2449 24.3675 23.4723 24.2002 23.8421C24.0328 24.2119 24.1118 24.6468 24.3984 24.9342C24.6674 25.2038 24.8895 25.5387 25.0576 25.9248C24.4794 25.9915 23.8279 25.9315 23.2127 25.5763C22.876 25.3819 22.5848 25.1161 22.347 24.7861C22.1634 24.5314 21.8687 24.3805 21.5547 24.3805C21.2409 24.3805 20.946 24.5313 20.7624 24.786C20.5246 25.1159 20.2333 25.3819 19.8966 25.5763C19.2815 25.9315 18.63 25.9913 18.0517 25.9248C18.2199 25.5387 18.442 25.2038 18.7108 24.9341C18.9976 24.6467 19.0765 24.2118 18.9091 23.842C18.7418 23.4721 18.3634 23.2446 17.9579 23.2698C16.7362 23.3471 15.5174 23.0605 14.4532 22.4599C15.2455 22.0111 16.1178 21.7391 17.0278 21.6626V21.6626Z" fill="#3B82F6"/>
<path d="M11.6108 11.8161C11.8609 11.8161 12.111 11.7206 12.3017 11.5299C12.6831 11.1485 12.6831 10.5301 12.3017 10.1488C11.9204 9.76746 11.3021 9.76746 10.9207 10.1488L10.9202 10.1493C10.5388 10.5306 10.539 11.1487 10.9204 11.5301C11.1111 11.7209 11.3609 11.8161 11.6108 11.8161Z" fill="#3B82F6"/>
</g>
<defs>
<clipPath id="clip0_3:318">
<rect width="41.9999" height="50" fill="white" transform="translate(0.555176)"/>
</clipPath>
</defs>
</svg>
